#!OML:ASF I:\Random Stuff\random\construction\7_22_03\Session 2\subj1.ASF
:FULLY-SPECIFIED
:DEGREES
762
root -9.05519 17.7137 -5.34338 -493.384 74.532 -507.404
lowerback 13.0342 2.00548 -6.57239
upperback 6.24031 2.41845 -7.35364
thorax -0.61432 1.4581 -4.35959
lowerneck -20.5387 -2.46847 -1.20335
upperneck 31.1632 -3.97785 4.6102
head 14.2571 -0.961376 1.4148
rclavicle 9.54166e-015 0
rhumerus 31.5372 67.7589 -14.2453
rradius 82.822
rwrist 22.1214
rhand -21.2268 11.2525
rfingers 7.12502
rthumb 5.15533 -18.6648
lclavicle 9.54166e-015 0
lhumerus 19.7972 -60.8683 76.3565
lradius 34.7659
lwrist -8.208
lhand -26.6578 55.7845
lfingers 7.12502
lthumb -0.0895715 85.7642
rfemur -9.14264 -5.48018 22.3477
rtibia 2.3059e-014
rfoot -1.26332 -9.57563
rtoes -22.1409
lfemur -32.0117 -5.68695 -4.93116
ltibia 31.943
lfoot -13.3766 2.51553
ltoes -32.4161
763
root -9.05511 17.7159 -5.34243 -493.424 74.5751 -507.383
lowerback 13.0948 2.02511 -6.64197
upperback 6.26178 2.43481 -7.35345
thorax -0.625324 1.46631 -4.32543
lowerneck -20.4809 -2.44761 -1.25916
upperneck 31.0386 -3.96191 4.71113
head 14.1931 -0.951366 1.46586
rclavicle -4.92986e-014 1.27222e-014
rhumerus 31.6927 67.7741 -14.2054
rradius 82.7861
rwrist 22.1956
rhand -22.0816 11.6119
rfingers 7.12502
rthumb 4.33002 -18.3238
lclavicle -4.92986e-014 1.27222e-014
lhumerus 19.8038 -60.8688 76.3487
lradius 34.7666
lwrist -8.19394
lhand -26.7581 55.7455
lfingers 7.12502
lthumb -0.186441 85.7252
rfemur -9.05065 -5.44663 22.3193
rtibia -1.82882e-014
rfoot -1.31232 -9.58256
rtoes -22.1064
lfemur -31.9139 -5.69623 -4.94957
ltibia 31.9486
lfoot -13.4353 2.45754
ltoes -31.8779
764
root -9.05663 17.7187 -5.34411 -493.56 74.614 -507.536
lowerback 13.0615 2.00968 -6.73133
upperback 6.28576 2.41326 -7.35529
thorax -0.584771 1.45419 -4.27213
lowerneck -20.4175 -2.37528 -1.30492
upperneck 30.8932 -3.87892 4.82755
head 14.1163 -0.909688 1.53298
rclavicle -4.6118e-014 -4.45278e-014
rhumerus 32.102 67.7899 -13.9205
rradius 82.7274
rwrist 22.4103
rhand -22.0832 11.457
rfingers 7.12502
rthumb 4.32844 -18.4787
lclavicle -4.6118e-014 -4.45278e-014
lhumerus 19.8287 -60.788 76.3575
lradius 34.7002
lwrist -8.17197
lhand -26.8452 55.7283
lfingers 7.12502
lthumb -0.27056 85.7078
rfemur -9.05983 -5.45009 22.2554
rtibia 3.18055e-015
rfoot -1.3037 -9.57347
rtoes -22.1759
lfemur -31.9219 -5.73419 -5.00269
ltibia 31.956
lfoot -13.4508 2.4397
ltoes -31.5243
765
root -9.05937 17.7169 -5.34738 -493.655 74.6222 -507.648
lowerback 13.0621 1.98415 -6.76669
upperback 6.29391 2.3771 -7.35229
thorax -0.578513 1.43559 -4.24401
lowerneck -20.409 -2.31629 -1.3085
upperneck 30.8511 -3.79758 4.8459
head 14.093 -0.873975 1.55473
rclavicle 9.54166e-015 -6.67916e-014
rhumerus 32.5274 67.8274 -13.5714
rradius 82.7361
rwrist 22.4953
rhand -22.1373 11.3202
rfingers 7.12502
rthumb 4.27618 -18.6166
lclavicle 9.54166e-015 -6.67916e-014
lhumerus 19.8322 -60.7129 76.3833
lradius 34.6645
lwrist -8.18636
lhand -26.816 55.8532
lfingers 7.12502
lthumb -0.242364 85.8328
rfemur -9.10437 -5.47006 22.2084
rtibia 1.98785e-014
rfoot -1.24269 -9.55545
rtoes -22.3481
lfemur -31.9475 -5.79887 -5.03561
ltibia 31.9787
lfoot -13.4486 2.52529
ltoes -31.7614
766
root -9.06294 17.7123 -5.35086 -493.627 74.603 -507.613
lowerback 13.1218 1.9715 -6.72122
upperback 6.29764 2.35893 -7.34544
thorax -0.60628 1.42772 -4.26252
lowerneck -20.4686 -2.29675 -1.27133
upperneck 30.8865 -3.76201 4.77998
head 14.1173 -0.862362 1.52854
rclavicle -6.36111e-015 5.08889e-014
rhumerus 32.8196 67.8562 -13.3028
rradius 82.8115
rwrist 22.2873
rhand -22.3357 11.4052
rfingers 7.12502
rthumb 4.08465 -18.5354
lclavicle -6.36111e-015 5.08889e-014
lhumerus 19.8759 -60.705 76.3558
lradius 34.6925
lwrist -8.18202
lhand -26.7574 55.9044
lfingers 7.12502
lthumb -0.185779 85.8841
rfemur -9.13703 -5.48293 22.2003
rtibia -2.38542e-015
rfoot -1.20357 -9.54084
rtoes -22.3775
lfemur -31.954 -5.85239 -5.01502
ltibia 32.0056
lfoot -13.4506 2.56597
ltoes -31.6837
767
root -9.06578 17.7099 -5.35008 -493.401 74.5897 -507.41
lowerback 13.1119 1.97751 -6.71084
upperback 6.30149 2.36788 -7.32026
thorax -0.597735 1.43091 -4.24191
lowerneck -20.524 -2.28537 -1.21747
upperneck 30.8929 -3.74012 4.69751
head 14.1277 -0.858235 1.48952
rclavicle -4.6118e-014 3.18055e-015
rhumerus 32.9679 67.8482 -13.1819
rradius 82.8869
rwrist 22.0721
rhand -22.0094 10.912
rfingers 7.12502
rthumb 4.39964 -19.0223
lclavicle -4.6118e-014 3.18055e-015
lhumerus 20.0275 -60.7325 76.2203
lradius 34.684
lwrist -8.13793
lhand -26.7821 55.8944
lfingers 7.12502
lthumb -0.209623 85.874
rfemur -9.18238 -5.44963 22.2561
rtibia -2.22639e-014
rfoot -1.21876 -9.54653
rtoes -22.0538
lfemur -31.9867 -5.73539 -4.96578
ltibia 32.0211
lfoot -13.4708 2.48146
ltoes -31.5595
768
root -9.06801 17.7128 -5.35109 -493.369 74.5875 -507.408
lowerback 13.1025 1.97357 -6.72049
upperback 6.30134 2.36207 -7.31215
thorax -0.593728 1.42731 -4.22654
lowerneck -20.5409 -2.27159 -1.18613
upperneck 30.8704 -3.71587 4.6461
head 14.1183 -0.85242 1.46693
rclavicle 9.54166e-015 3.49861e-014
rhumerus 32.8415 67.8242 -13.3514
rradius 82.9533
rwrist 22.1556
rhand -21.803 10.7071
rfingers 7.12502
rthumb 4.59903 -19.2229
lclavicle 9.54166e-015 3.49861e-014
lhumerus 20.1592 -60.784 76.1062
lradius 34.6345
lwrist -8.11375
lhand -26.88 55.916
lfingers 7.12502
lthumb -0.304225 85.8956
rfemur -9.21711 -5.44725 22.2676
rtibia -4.77083e-015
rfoot -1.22315 -9.55788
rtoes -22.0538
lfemur -32.0263 -5.74212 -4.96209
ltibia 32.0208
lfoot -13.4833 2.51851
ltoes -31.7458
